g Fan
v 0.4904192 -0.2831441 0
v 0.5662875 0 0
v 0.4904194 0.2831438 0
v 0.2831438 0.4904194 0
v 0.2831435 -0.4904195 0
v -2.475321E-08 0.5662875 0
v -2.63274E-07 -0.5662875 0
v -0.2831438 0.4904194 0
v -0.2831439 -0.4904193 0
v -0.4904194 0.2831438 0
v -0.4904194 -0.2831436 0
v -0.5662875 8.550704E-08 0
v 0.5662875 0 0
v 0.5662875 0 0.4495359
v 0.4904194 0.2831438 0.4495359
v 0.4904194 0.2831438 0
v 0.2831438 0.4904194 0.4495359
v 0.2831438 0.4904194 0
v 0.4904192 -0.2831441 0
v 0.4904192 -0.2831441 0.4495359
v 0.2831438 0.4904194 0
v 0.2831438 0.4904194 0.4495359
v -2.475321E-08 0.5662875 0.4495359
v -2.475321E-08 0.5662875 0
v -2.475321E-08 0.5662875 0
v -2.475321E-08 0.5662875 0.4495359
v -0.2831438 0.4904194 0.4495359
v -0.2831438 0.4904194 0
v -0.4904194 0.2831438 0.4495359
v -0.4904194 0.2831438 0
v -0.4904194 0.2831438 0
v -0.4904194 0.2831438 0.4495359
v -0.5662875 8.550704E-08 0.4495359
v -0.5662875 8.550704E-08 0
v -0.4904194 -0.2831436 0.4495359
v -0.4904194 -0.2831436 0
v -0.2831439 -0.4904193 0.4495359
v -0.2831439 -0.4904193 0
v -0.2831439 -0.4904193 0
v -0.2831439 -0.4904193 0.4495359
v -2.63274E-07 -0.5662875 0.4495359
v -2.63274E-07 -0.5662875 0
v 0.2831435 -0.4904195 0.4495359
v 0.2831435 -0.4904195 0
v 0.4904192 -0.2831441 0.4495359
v 0.4904192 -0.2831441 0
v 0.4904194 0.2831438 0.4495359
v 0.5662875 0 0.4495359
v 0.4904192 -0.2831441 0.4495359
v 0.2831438 0.4904194 0.4495359
v 0.2831435 -0.4904195 0.4495359
v -2.475321E-08 0.5662875 0.4495359
v -2.63274E-07 -0.5662875 0.4495359
v -0.2831438 0.4904194 0.4495359
v -0.2831439 -0.4904193 0.4495359
v -0.4904194 0.2831438 0.4495359
v -0.4904194 -0.2831436 0.4495359
v -0.5662875 8.550704E-08 0.4495359
v 0.2227249 0.421524 0.1928798
v 0.2135772 0.421524 0.05309483
v -0.1709862 0.421524 0.2358006
v -0.1618385 0.421524 0.3755856
v 0.3025109 2.495429 0.1928797
v -0.237917 2.495429 0.3755855
v -0.2507723 2.495429 0.2358005
v 0.2896556 2.495429 0.05309477
v 0.2227249 0.421524 0.1928798
v 0.3025109 2.495429 0.1928797
v 0.2896556 2.495429 0.05309477
v 0.2135772 0.421524 0.05309483
v 0.2135772 0.421524 0.05309483
v 0.2896556 2.495429 0.05309477
v -0.2507723 2.495429 0.2358005
v -0.1709862 0.421524 0.2358006
v -0.1709862 0.421524 0.2358006
v -0.2507723 2.495429 0.2358005
v -0.237917 2.495429 0.3755855
v -0.1618385 0.421524 0.3755856
v -0.1618385 0.421524 0.3755856
v -0.237917 2.495429 0.3755855
v 0.3025109 2.495429 0.1928797
v 0.2227249 0.421524 0.1928798
v -0.3963622 0.2152729 0.1928798
v -0.3963622 0.2061252 0.05309489
v -0.3963624 -0.1784382 0.2358006
v -0.3963624 -0.1692905 0.3755855
v -2.470267 0.2950599 0.1928799
v -2.470267 -0.245368 0.3755855
v -2.470267 -0.2582234 0.2358006
v -2.470267 0.2822046 0.05309492
v -0.3963622 0.2152729 0.1928798
v -2.470267 0.2950599 0.1928799
v -2.470267 0.2822046 0.05309492
v -0.3963622 0.2061252 0.05309489
v -0.3963622 0.2061252 0.05309489
v -2.470267 0.2822046 0.05309492
v -2.470267 -0.2582234 0.2358006
v -0.3963624 -0.1784382 0.2358006
v -0.3963624 -0.1784382 0.2358006
v -2.470267 -0.2582234 0.2358006
v -2.470267 -0.245368 0.3755855
v -0.3963624 -0.1692905 0.3755855
v -0.3963624 -0.1692905 0.3755855
v -2.470267 -0.245368 0.3755855
v -2.470267 0.2950599 0.1928799
v -0.3963622 0.2152729 0.1928798
v 0.3855476 -0.1647053 0.1928798
v 0.3855476 -0.1555576 0.05309489
v 0.3855476 0.2290058 0.2358006
v 0.3855477 0.2198581 0.3755855
v 2.459453 -0.2444914 0.1928795
v 2.459453 0.2959365 0.3755851
v 2.459453 0.3087919 0.2358002
v 2.459453 -0.231636 0.05309455
v 0.3855476 -0.1647053 0.1928798
v 2.459453 -0.2444914 0.1928795
v 2.459453 -0.231636 0.05309455
v 0.3855476 -0.1555576 0.05309489
v 0.3855476 -0.1555576 0.05309489
v 2.459453 -0.231636 0.05309455
v 2.459453 0.3087919 0.2358002
v 0.3855476 0.2290058 0.2358006
v 0.3855476 0.2290058 0.2358006
v 2.459453 0.3087919 0.2358002
v 2.459453 0.2959365 0.3755851
v 0.3855477 0.2198581 0.3755855
v 0.3855477 0.2198581 0.3755855
v 2.459453 0.2959365 0.3755851
v 2.459453 -0.2444914 0.1928795
v 0.3855476 -0.1647053 0.1928798
v -0.2024899 -0.3884277 0.1928799
v -0.1933422 -0.3884277 0.05309492
v 0.1912213 -0.3884278 0.2358006
v 0.1820736 -0.3884278 0.3755855
v -0.2822765 -2.462333 0.1928798
v 0.2581514 -2.462333 0.3755853
v 0.2710067 -2.462333 0.2358004
v -0.2694212 -2.462333 0.05309483
v -0.2024899 -0.3884277 0.1928799
v -0.2822765 -2.462333 0.1928798
v -0.2694212 -2.462333 0.05309483
v -0.1933422 -0.3884277 0.05309492
v -0.1933422 -0.3884277 0.05309492
v -0.2694212 -2.462333 0.05309483
v 0.2710067 -2.462333 0.2358004
v 0.1912213 -0.3884278 0.2358006
v 0.1912213 -0.3884278 0.2358006
v 0.2710067 -2.462333 0.2358004
v 0.2581514 -2.462333 0.3755853
v 0.1820736 -0.3884278 0.3755855
v 0.1820736 -0.3884278 0.3755855
v 0.2581514 -2.462333 0.3755853
v -0.2822765 -2.462333 0.1928798
v -0.2024899 -0.3884277 0.1928799
vt 0.7497506 0.9325799
vt 0.5000001 0.9995005
vt 0.2502498 0.9325802
vt 0.06741992 0.7497504
vt 0.9325804 0.7497499
vt 0.0004994869 0.5000001
vt 0.9995005 0.4999997
vt 0.06741983 0.2502498
vt 0.93258 0.2502495
vt 0.2502496 0.06741995
vt 0.7497501 0.06741974
vt 0.4999998 0.0004994869
vt 0.7499999 0.0004995167
vt 0.7499999 0.9995005
vt 0.8333333 0.9995005
vt 0.8333333 0.0004995167
vt 0.9166666 0.9995005
vt 0.9166666 0.0004995167
vt 0.6666665 0.0004995167
vt 0.6666665 0.9995005
vt 0.9166666 0.0004995167
vt 0.9166666 0.9995005
vt 0.9999999 0.9995005
vt 0.9999999 0.0004995167
vt -5.960464E-08 0.0004995167
vt -5.960464E-08 0.9995005
vt 0.08333331 0.9995005
vt 0.08333331 0.0004995167
vt 0.1666666 0.9995005
vt 0.1666666 0.0004995167
vt 0.1666666 0.0004995167
vt 0.1666666 0.9995005
vt 0.2499999 0.9995005
vt 0.2499999 0.0004995167
vt 0.3333333 0.9995005
vt 0.3333333 0.0004995167
vt 0.4166666 0.9995005
vt 0.4166666 0.0004995167
vt 0.4166666 0.0004995167
vt 0.4166666 0.9995005
vt 0.4999999 0.9995005
vt 0.4999999 0.0004995167
vt 0.5833332 0.9995005
vt 0.5833332 0.0004995167
vt 0.6666665 0.9995005
vt 0.6666665 0.0004995167
vt 0.2502498 0.9325802
vt 0.5000001 0.9995005
vt 0.7497506 0.9325799
vt 0.06741992 0.7497504
vt 0.9325804 0.7497499
vt 0.0004994869 0.5000001
vt 0.9995005 0.4999997
vt 0.06741983 0.2502498
vt 0.93258 0.2502495
vt 0.2502496 0.06741995
vt 0.7497501 0.06741974
vt 0.4999998 0.0004994869
vt 0.7303341 0.1435397
vt 0.0004994571 0.1368927
vt 0.2696659 0.8564603
vt 0.9995005 0.8631073
vt 0.1318806 0.0004995465
vt 0.1318819 0.9995005
vt 0.8681194 0.9995005
vt 0.8681181 0.0004994869
vt 0.2696659 0.0004995167
vt 0.1318806 0.9995005
vt 0.8681181 0.9995005
vt 0.9995005 0.0004995167
vt 0.1368927 0.0004995167
vt 0.0004994869 0.9995005
vt 0.9995005 0.9995005
vt 0.8564603 0.0004995167
vt 0.2696659 0.0004995167
vt 0.1318806 0.9995005
vt 0.8681181 0.9995005
vt 0.9995005 0.0004995167
vt 0.1368927 0.0004995167
vt 0.0004994869 0.9995005
vt 0.9995005 0.9995005
vt 0.8564603 0.0004995167
vt 0.2696659 0.1435397
vt 0.9995005 0.1368927
vt 0.7303341 0.8564603
vt 0.0004994571 0.8631073
vt 0.1318806 0.0004995465
vt 0.1318819 0.9995005
vt 0.8681194 0.9995005
vt 0.8681181 0.0004994869
vt 0.2696659 0.1435397
vt 0.1318806 0.0004995465
vt 0.8681181 0.0004994869
vt 0.9995005 0.1368927
vt 0.9995005 0.1368927
vt 0.8681181 0.0004994869
vt 0.8681194 0.9995005
vt 0.7303341 0.8564603
vt 0.7303341 0.8564603
vt 0.8681194 0.9995005
vt 0.1318819 0.9995005
vt 0.0004994571 0.8631073
vt 0.0004994571 0.8631073
vt 0.1318819 0.9995005
vt 0.1318806 0.0004995465
vt 0.2696659 0.1435397
vt 0.2696659 0.1435397
vt 0.9995005 0.1368927
vt 0.7303341 0.8564603
vt 0.0004994571 0.8631073
vt 0.1318806 0.0004995465
vt 0.1318819 0.9995005
vt 0.8681194 0.9995005
vt 0.8681181 0.0004994869
vt 0.2696659 0.1435397
vt 0.1318806 0.0004995465
vt 0.8681181 0.0004994869
vt 0.9995005 0.1368927
vt 0.9995005 0.1368927
vt 0.8681181 0.0004994869
vt 0.8681194 0.9995005
vt 0.7303341 0.8564603
vt 0.7303341 0.8564603
vt 0.8681194 0.9995005
vt 0.1318819 0.9995005
vt 0.0004994571 0.8631073
vt 0.0004994571 0.8631073
vt 0.1318819 0.9995005
vt 0.1318806 0.0004995465
vt 0.2696659 0.1435397
vt 0.2696659 0.1435397
vt 0.9995005 0.1368927
vt 0.7303341 0.8564603
vt 0.0004994571 0.8631073
vt 0.1318806 0.0004995465
vt 0.1318819 0.9995005
vt 0.8681194 0.9995005
vt 0.8681181 0.0004994869
vt 0.2696659 0.1435397
vt 0.1318806 0.0004995465
vt 0.8681181 0.0004994869
vt 0.9995005 0.1368927
vt 0.9995005 0.1368927
vt 0.8681181 0.0004994869
vt 0.8681194 0.9995005
vt 0.7303341 0.8564603
vt 0.7303341 0.8564603
vt 0.8681194 0.9995005
vt 0.1318819 0.9995005
vt 0.0004994571 0.8631073
vt 0.0004994571 0.8631073
vt 0.1318819 0.9995005
vt 0.1318806 0.0004995465
vt 0.2696659 0.1435397
vn 0 0 -1
vn 0 0 -1
vn 0 0 -1
vn 0 0 -1
vn 0 0 -1
vn 0 0 -1
vn 0 0 -1
vn 0 0 -1
vn 0 0 -1
vn 0 0 -1
vn 0 0 -1
vn 0 0 -1
vn 1 0 0
vn 1 0 0
vn 0.8660254 0.5 0
vn 0.8660254 0.5 0
vn 0.5 0.8660254 0
vn 0.5 0.8660254 0
vn 0.8660253 -0.5000004 0
vn 0.8660253 -0.5000004 0
vn 0.5 0.8660254 0
vn 0.5 0.8660254 0
vn 0 1 0
vn 0 1 0
vn 0 1 0
vn 0 1 0
vn -0.5 0.8660254 0
vn -0.5 0.8660254 0
vn -0.8660254 0.5 0
vn -0.8660254 0.5 0
vn -0.8660254 0.5 0
vn -0.8660254 0.5 0
vn -1 0 0
vn -1 0 0
vn -0.8660255 -0.4999997 0
vn -0.8660255 -0.4999997 0
vn -0.5000003 -0.8660253 0
vn -0.5000003 -0.8660253 0
vn -0.5000003 -0.8660253 0
vn -0.5000003 -0.8660253 0
vn 0 -1 0
vn 0 -1 0
vn 0.4999995 -0.8660257 0
vn 0.4999995 -0.8660257 0
vn 0.8660253 -0.5000004 0
vn 0.8660253 -0.5000004 0
vn 0 0 1
vn 0 0 1
vn 0 0 1
vn 0 0 1
vn 0 0 1
vn 0 0 1
vn 0 0 1
vn 0 0 1
vn 0 0 1
vn 0 0 1
vn 0 0 1
vn 0 0 1
vn 0 -1 0
vn 0 -1 0
vn 0 -1 0
vn 0 -1 0
vn 0 1 0
vn 0 1 0
vn 0 1 0
vn 0 1 0
vn 0.9962184 -0.03743542 -0.07840573
vn 0.9962184 -0.03743542 -0.07840573
vn 0.9962184 -0.03743542 -0.07840573
vn 0.9962184 -0.03743542 -0.07840573
vn -0.367413 -0.0003284704 -0.9300578
vn -0.367413 -0.0003284704 -0.9300578
vn -0.367413 -0.0003284704 -0.9300578
vn -0.367413 -0.0003284704 -0.9300578
vn -0.9962184 -0.03743546 0.0784057
vn -0.9962184 -0.03743546 0.0784057
vn -0.9962184 -0.03743546 0.0784057
vn -0.9962184 -0.03743547 0.07840571
vn 0.367413 -0.0003283657 0.9300578
vn 0.3674131 -0.0003283657 0.9300578
vn 0.367413 -0.0003283657 0.9300578
vn 0.367413 -0.0003283657 0.9300578
vn 1 0 0
vn 1 0 0
vn 1 0 0
vn 1 0 0
vn -1 0 0
vn -1 0 0
vn -1 0 0
vn -1 0 0
vn 0.0374359 0.9962184 -0.0784057
vn 0.0374359 0.9962184 -0.0784057
vn 0.0374359 0.9962184 -0.07840569
vn 0.0374359 0.9962184 -0.0784057
vn 0.0003282555 -0.3674129 -0.9300579
vn 0.0003282555 -0.3674128 -0.9300579
vn 0.0003282555 -0.3674128 -0.9300579
vn 0.0003282555 -0.3674128 -0.9300579
vn 0.03743501 -0.9962184 0.07840565
vn 0.03743501 -0.9962184 0.07840565
vn 0.03743501 -0.9962184 0.07840565
vn 0.03743501 -0.9962184 0.07840566
vn 0.0003285833 0.3674128 0.9300579
vn 0.0003285833 0.3674128 0.9300579
vn 0.0003285833 0.3674128 0.9300579
vn 0.0003285833 0.3674129 0.9300579
vn -1 0 0
vn -1 0 0
vn -1 0 0
vn -1 0 0
vn 1 0 0
vn 1 0 0
vn 1 0 0
vn 1 0 0
vn -0.03743547 -0.9962184 -0.07840561
vn -0.03743547 -0.9962184 -0.07840561
vn -0.03743547 -0.9962184 -0.07840562
vn -0.03743547 -0.9962184 -0.07840561
vn -0.0003285879 0.3674129 -0.9300579
vn -0.0003285878 0.3674128 -0.9300579
vn -0.0003285879 0.3674128 -0.9300579
vn -0.0003285878 0.3674129 -0.9300579
vn -0.03743541 0.9962184 0.0784056
vn -0.03743541 0.9962184 0.0784056
vn -0.03743541 0.9962184 0.0784056
vn -0.03743541 0.9962184 0.0784056
vn -0.0003282663 -0.3674129 0.9300579
vn -0.0003282663 -0.3674128 0.9300579
vn -0.0003282663 -0.3674128 0.9300579
vn -0.0003282663 -0.3674129 0.9300579
vn 0 1 0
vn 0 1 0
vn 0 1 0
vn 0 1 0
vn 0 -1 0
vn 0 -1 0
vn 0 -1 0
vn 0 -1 0
vn -0.9962184 0.03743574 -0.07840541
vn -0.9962184 0.03743574 -0.07840541
vn -0.9962184 0.03743574 -0.07840542
vn -0.9962184 0.03743574 -0.0784054
vn 0.3674127 0.0003283702 -0.930058
vn 0.3674127 0.0003283702 -0.930058
vn 0.3674127 0.0003283702 -0.930058
vn 0.3674127 0.0003283702 -0.9300579
vn 0.9962184 0.03743516 0.0784054
vn 0.9962184 0.03743516 0.0784054
vn 0.9962184 0.03743516 0.07840541
vn 0.9962184 0.03743516 0.0784054
vn -0.3674127 0.0003284606 0.930058
vn -0.3674127 0.0003284605 0.930058
vn -0.3674127 0.0003284605 0.930058
vn -0.3674127 0.0003284606 0.930058
g Fan_0
f 3/3/3 2/2/2 1/1/1
f 1/1/1 4/4/4 3/3/3
f 1/1/1 5/5/5 4/4/4
f 5/5/5 6/6/6 4/4/4
f 5/5/5 7/7/7 6/6/6
f 7/7/7 8/8/8 6/6/6
f 7/7/7 9/9/9 8/8/8
f 9/9/9 10/10/10 8/8/8
f 9/9/9 11/11/11 10/10/10
f 11/11/11 12/12/12 10/10/10
f 15/15/15 14/14/14 13/13/13
f 16/16/16 15/15/15 13/13/13
f 17/17/17 15/15/15 16/16/16
f 18/18/18 17/17/17 16/16/16
f 13/13/13 14/14/14 19/19/19
f 14/14/14 20/20/20 19/19/19
f 23/23/23 22/22/22 21/21/21
f 24/24/24 23/23/23 21/21/21
f 27/27/27 26/26/26 25/25/25
f 28/28/28 27/27/27 25/25/25
f 29/29/29 27/27/27 28/28/28
f 30/30/30 29/29/29 28/28/28
f 33/33/33 32/32/32 31/31/31
f 34/34/34 33/33/33 31/31/31
f 35/35/35 33/33/33 34/34/34
f 36/36/36 35/35/35 34/34/34
f 37/37/37 35/35/35 36/36/36
f 38/38/38 37/37/37 36/36/36
f 41/41/41 40/40/40 39/39/39
f 42/42/42 41/41/41 39/39/39
f 43/43/43 41/41/41 42/42/42
f 44/44/44 43/43/43 42/42/42
f 45/45/45 43/43/43 44/44/44
f 46/46/46 45/45/45 44/44/44
f 49/49/49 48/48/48 47/47/47
f 47/47/47 50/50/50 49/49/49
f 50/50/50 51/51/51 49/49/49
f 50/50/50 52/52/52 51/51/51
f 52/52/52 53/53/53 51/51/51
f 52/52/52 54/54/54 53/53/53
f 54/54/54 55/55/55 53/53/53
f 54/54/54 56/56/56 55/55/55
f 56/56/56 57/57/57 55/55/55
f 56/56/56 58/58/58 57/57/57
f 61/61/61 60/60/60 59/59/59
f 62/62/62 61/61/61 59/59/59
f 65/65/65 64/64/64 63/63/63
f 66/66/66 65/65/65 63/63/63
f 69/69/69 68/68/68 67/67/67
f 70/70/70 69/69/69 67/67/67
f 73/73/73 72/72/72 71/71/71
f 74/74/74 73/73/73 71/71/71
f 77/77/77 76/76/76 75/75/75
f 78/78/78 77/77/77 75/75/75
f 81/81/81 80/80/80 79/79/79
f 82/82/82 81/81/81 79/79/79
f 85/85/85 84/84/84 83/83/83
f 86/86/86 85/85/85 83/83/83
f 89/89/89 88/88/88 87/87/87
f 90/90/90 89/89/89 87/87/87
f 93/93/93 92/92/92 91/91/91
f 94/94/94 93/93/93 91/91/91
f 97/97/97 96/96/96 95/95/95
f 98/98/98 97/97/97 95/95/95
f 101/101/101 100/100/100 99/99/99
f 102/102/102 101/101/101 99/99/99
f 105/105/105 104/104/104 103/103/103
f 106/106/106 105/105/105 103/103/103
f 109/109/109 108/108/108 107/107/107
f 110/110/110 109/109/109 107/107/107
f 113/113/113 112/112/112 111/111/111
f 114/114/114 113/113/113 111/111/111
f 117/117/117 116/116/116 115/115/115
f 118/118/118 117/117/117 115/115/115
f 121/121/121 120/120/120 119/119/119
f 122/122/122 121/121/121 119/119/119
f 125/125/125 124/124/124 123/123/123
f 126/126/126 125/125/125 123/123/123
f 129/129/129 128/128/128 127/127/127
f 130/130/130 129/129/129 127/127/127
f 133/133/133 132/132/132 131/131/131
f 134/134/134 133/133/133 131/131/131
f 137/137/137 136/136/136 135/135/135
f 138/138/138 137/137/137 135/135/135
f 141/141/141 140/140/140 139/139/139
f 142/142/142 141/141/141 139/139/139
f 145/145/145 144/144/144 143/143/143
f 146/146/146 145/145/145 143/143/143
f 149/149/149 148/148/148 147/147/147
f 150/150/150 149/149/149 147/147/147
f 153/153/153 152/152/152 151/151/151
f 154/154/154 153/153/153 151/151/151
